# xmcd CD database file
#
# Track frame offsets:
#	150
#	17350
#	43430
#	61330
#	84282
#	109942
#	129165
#	149390
#	183335
#	205700
#	223270
#	232362
#	258290
#	278540
#
# Disc length: 4055 seconds
#
# Revision: 2
# Processed by: cddbd v1.4b41PL1 Copyright (c) Steve Scherf et al.
# Submitted via: Feurio! 1.50.2ß - http://www.feurio.com
#
DISCID=c90fd50e
DTITLE=Dannemann - Presence of the soul
DYEAR=1900
DGENRE=
TTITLE0=I do not complain
TTITLE1=Magic potion
TTITLE2=Cecile
TTITLE3=One girl show (to Nadine)
TTITLE4=Broken man
TTITLE5=Little Susie
TTITLE6=Fire your gun
TTITLE7=Cheek
TTITLE8=That's why I love you
TTITLE9=Psalm 34
TTITLE10=Miller's delight
TTITLE11=Oriental girl
TTITLE12=You took my heart with you
TTITLE13=Another day
EXTD=
EXTT0=
EXTT1=
EXTT2=
EXTT3=
EXTT4=
EXTT5=
EXTT6=
EXTT7=
EXTT8=
EXTT9=
EXTT10=
EXTT11=
EXTT12=
EXTT13=
PLAYORDER=
